# xmcd
#
# Track frame offsets: 
#        150
#        23622
#        44122
#        64132
#        87495
#        108117
#        132465
#        153840
#        172812
#        192520
#
# Disc length: 2865 seconds
#
# Revision: 20
# Processed by: cddbd v1.5.2PL0 Copyright (c) Steve Scherf et al.
# Submitted via: ExactAudioCopyFreeDBPlugin 1.0
#
DISCID=810b2f0a
DTITLE=張惠妹 - 不顧一切
DYEAR=2000
DGENRE=Pop
TTITLE0=一夜情 One Night Love
TTITLE1=灰姑娘 Cinderella
TTITLE2=不顧一切 Regardless
TTITLE3=讓每個人都心碎 Love Breaks Everyone's Heart
TTITLE4=純真年代 Wonder Why
TTITLE5=趁早 Before It's Too Late
TTITLE6=I Am Amazed
TTITLE7=奔跑 Racing
TTITLE8=最後一次 Last Time
TTITLE9=不二法門 No Other Way
EXTD=YEAR: 2000
EXTT0=
EXTT1=
EXTT2=
EXTT3=
EXTT4=
EXTT5=
EXTT6=
EXTT7=
EXTT8=
EXTT9=
PLAYORDER=
